<svg width="22" height="21" viewBox="0 0 22 21" fill="none" xmlns="http://www.w3.org/2000/svg">
<path d="M18.0987 0.545502L3.95818 0.499037C2.34289 0.493729 1.02418 1.8038 1.01888 3.41908L0.972412 17.5596C0.967104 19.1749 2.27717 20.4936 3.89246 20.4989L9.79086 20.5183L9.81409 13.448L7.47036 13.4403L7.48191 9.92473L9.82565 9.93243L9.83348 7.54963C9.83985 5.61101 11.422 4.03921 13.3606 4.04558L16.9153 4.05726L16.9038 7.57286L13.3491 7.56118L13.3413 9.94398L16.8959 9.95566L16.2984 13.4693L13.3297 13.4596L13.3065 20.5299L18.033 20.5454C19.6483 20.5507 20.967 19.2406 20.9723 17.6253L21.0188 3.4848C21.0241 1.86951 19.714 0.55081 18.0987 0.545502Z" fill="black"/>
</svg>
