<svg width="21" height="20" viewBox="0 0 21 20" fill="none" xmlns="http://www.w3.org/2000/svg">
<path d="M11.0293 0.292259C5.50433 0.274104 1.01503 4.62105 0.997349 10.0004C0.983205 14.3051 3.83619 17.9649 7.80444 19.265C8.30414 19.3583 8.48846 19.0574 8.48931 18.7988C8.49007 18.5675 8.48375 17.9546 8.48225 17.1425C5.69867 17.7207 5.11823 15.8246 5.11823 15.8246C4.66693 14.6988 4.01042 14.396 4.01042 14.396C3.10658 13.7891 4.08237 13.8047 4.08237 13.8047C5.0863 13.8758 5.61073 14.8134 5.61073 14.8134C6.49749 16.3058 7.94807 15.8802 8.52055 15.6334C8.61262 15.0034 8.87153 14.5755 9.15816 14.3328C6.93814 14.0818 4.60674 13.2365 4.619 9.50428C4.62249 8.44113 5.01285 7.57337 5.65675 6.89398C5.54506 6.64744 5.21081 5.65587 5.75272 4.3161C5.75272 4.3161 6.59107 4.05781 8.49942 5.32385C9.30013 5.11005 10.1505 5.00546 11.0005 5.00329C11.8505 5.01104 12.7001 5.12122 13.4994 5.34028C15.4035 4.08677 16.2402 4.35056 16.2402 4.35056C16.7733 5.69386 16.4325 6.68321 16.3317 6.92905C16.9669 7.61266 17.3516 8.48296 17.3481 9.54611C17.3358 13.2882 14.9956 14.1041 12.7698 14.3364C13.1189 14.6299 13.4419 15.2283 13.4389 16.1411C13.4346 17.4446 13.4187 18.492 13.4176 18.8084C13.4168 19.0637 13.5908 19.3691 14.1036 19.2733C18.1086 18.0077 20.9831 14.3642 20.9972 10.0661C21.0149 4.68677 16.5518 0.310405 11.0293 0.292259Z" fill="#212121"/>
</svg>
