<svg width="22" height="21" viewBox="0 0 22 21" fill="none" xmlns="http://www.w3.org/2000/svg">
<path d="M14.7786 0.419571L7.27865 0.394927C3.82742 0.383586 1.01949 3.17312 1.00815 6.62436L0.983505 14.1243C0.972165 17.5755 3.7617 20.3835 7.21293 20.3948L14.7129 20.4195C18.1641 20.4308 20.9721 17.6413 20.9834 14.19L21.008 6.69007C21.0194 3.23884 18.2298 0.430912 14.7786 0.419571ZM19.1084 14.1839C19.1005 16.5964 17.1315 18.5524 14.7191 18.5445L7.2191 18.5198C4.80661 18.5119 2.85057 16.543 2.85849 14.1305L2.88314 6.63052C2.89107 4.21803 4.86 2.26199 7.27249 2.26992L14.7725 2.29456C17.1849 2.30249 19.141 4.27143 19.1331 6.68391L19.1084 14.1839Z" fill="black"/>
<path d="M11.0122 5.40721C8.25094 5.39813 6.00485 7.62952 5.99578 10.3908C5.9867 13.152 8.21809 15.3981 10.9793 15.4072C13.7406 15.4162 15.9866 13.1848 15.9957 10.4236C16.0048 7.66237 13.7734 5.41628 11.0122 5.40721ZM10.9855 13.5322C9.26299 13.5265 7.86511 12.1194 7.87077 10.3969C7.87643 8.67317 9.28353 7.27654 11.006 7.2822C12.7285 7.28786 14.1264 8.69371 14.1207 10.4174C14.1151 12.1399 12.708 13.5378 10.9855 13.5322Z" fill="black"/>
<path d="M16.3862 5.71612C16.7542 5.71732 17.0535 5.42002 17.0547 5.05206C17.0559 4.68411 16.7586 4.38484 16.3906 4.38363C16.0227 4.38242 15.7234 4.67973 15.7222 5.04768C15.721 5.41564 16.0183 5.71491 16.3862 5.71612Z" fill="black"/>
</svg>
