<svg width="238" height="230" viewBox="0 0 238 230" fill="none" xmlns="http://www.w3.org/2000/svg">
<path fill-rule="evenodd" clip-rule="evenodd" d="M237.123 121.003C236.961 124.059 236.676 127.085 236.272 130.074L103.09 0.979026C106.174 0.587698 109.295 0.311156 112.448 0.153971L237.123 121.003ZM92.1169 2.88486C95.3064 2.17883 98.5448 1.59739 101.826 1.1461L236.1 131.299C235.634 134.48 235.035 137.619 234.306 140.71L92.1169 2.88486ZM228.377 158.793C229.382 156.43 230.308 154.027 231.152 151.587L80.8958 5.94232C78.3789 6.76043 75.8997 7.6581 73.4613 8.63226L228.377 158.793ZM72.4483 9.04234C69.7834 10.1352 67.1683 11.3198 64.6072 12.5921L224.292 167.376C225.604 164.893 226.826 162.358 227.954 159.775L72.4483 9.04234ZM235.007 92.475C234.07 87.898 232.852 83.4188 231.372 79.0549L155.724 5.72917C151.222 4.2945 146.601 3.11395 141.879 2.20503L235.007 92.475ZM140.105 1.87715C135.797 1.11415 131.408 0.576651 126.952 0.277737L236.996 106.945C236.687 102.625 236.133 98.3704 235.346 94.1949L140.105 1.87715ZM237.282 115C237.282 116.565 237.25 118.122 237.186 119.672L113.822 0.0931565C115.42 0.0312488 117.027 0 118.641 0C120.916 0 123.176 0.0620619 125.419 0.184534L237.092 108.43C237.218 110.604 237.282 112.795 237.282 115ZM234.034 141.839C233.307 144.785 232.464 147.687 231.508 150.54L81.9755 5.59696C84.9192 4.67068 87.9133 3.85292 90.9529 3.14856L234.034 141.839ZM220.459 55.9349C224.545 62.5376 227.966 69.5706 230.633 76.9471L157.899 6.445C165.509 9.03062 172.765 12.3468 179.576 16.3069L220.459 55.9349ZM63.6612 13.0672C61.1656 14.3345 58.7222 15.6854 56.3351 17.1161L219.624 175.394C221.1 173.08 222.494 170.712 223.801 168.293L63.6612 13.0672ZM219.072 176.251L55.451 17.6512C53.3746 18.9202 51.3415 20.25 49.3546 21.6379L214.959 182.16C216.391 180.234 217.763 178.264 219.072 176.251ZM214.355 182.966L48.5231 22.2239C46.3196 23.7913 44.174 25.4307 42.0899 27.1384L209.285 189.202C211.046 187.182 212.738 185.102 214.355 182.966ZM183.416 18.637C197.225 27.3759 209.04 38.8281 218.055 52.2128L183.416 18.637ZM0.204066 108.198C0.409439 104.785 0.768376 101.412 1.27428 98.0855L136.091 228.765C132.659 229.255 129.179 229.603 125.658 229.802L0.204066 108.198ZM0.132287 109.521L124.294 229.872C122.421 229.957 120.536 230 118.641 230C117.132 230 115.629 229.973 114.133 229.918L0.0840877 119.37C0.0281952 117.92 0 116.463 0 115C0 113.163 0.0444239 111.337 0.132287 109.521ZM0.149593 120.826L112.631 229.855C108.284 229.645 103.999 229.208 99.7874 228.556L1.4898 133.275C0.81733 129.193 0.366483 125.039 0.149593 120.826ZM1.77826 134.947L98.0629 228.276C92.8647 227.395 87.7828 226.186 82.8409 224.672L5.49694 149.702C3.93471 144.911 2.6873 139.985 1.77826 134.947ZM6.19354 151.769C8.6595 158.857 11.8188 165.636 15.5933 172.03L59.8052 214.885C66.4017 218.544 73.3955 221.606 80.7082 223.997L6.19354 151.769ZM17.708 175.472C27.395 190.631 40.6154 203.446 56.2545 212.836L17.708 175.472ZM5.98883 78.8251C5.12993 81.3394 4.35812 83.8922 3.67687 86.4801L148.064 226.436C150.734 225.776 153.368 225.027 155.961 224.195L5.98883 78.8251ZM146.915 226.714L3.38983 87.5939C2.62084 90.6427 1.97725 93.7393 1.46467 96.8781L137.337 228.58C140.575 228.083 143.77 227.46 146.915 226.714ZM6.35037 77.7835C7.31387 75.0514 8.38051 72.3656 9.54578 69.7306L165.344 220.747C162.625 221.877 159.855 222.911 157.036 223.845L6.35037 77.7835ZM34.6075 33.8203C32.908 35.4732 31.2599 37.176 29.666 38.9262L197.124 201.244C198.929 199.699 200.686 198.102 202.391 196.455L34.6075 33.8203ZM196.358 201.894L28.9958 39.6686C27.2097 41.6638 25.4934 43.7193 23.8504 45.8314L190 206.882C192.179 205.289 194.299 203.625 196.358 201.894ZM203.107 195.757L35.3274 33.126C37.2594 31.2788 39.2564 29.4953 41.3148 27.7791L208.624 189.953C206.853 191.948 205.013 193.884 203.107 195.757ZM189.178 207.477L23.2363 46.6281C21.5969 48.7739 20.0327 50.9769 18.5475 53.2335L182.363 212.022C184.691 210.582 186.964 209.066 189.178 207.477ZM174.097 216.69C171.566 217.989 168.981 219.203 166.345 220.326L9.98051 68.76C11.1393 66.2052 12.3911 63.6991 13.7319 61.2457L174.097 216.69ZM175.033 216.204L14.2327 60.3391C15.4195 58.2137 16.6733 56.1286 17.9915 54.0865L181.483 212.561C179.377 213.838 177.225 215.054 175.033 216.204Z" fill="url(#paint0_linear_37_196)" fill-opacity="0.4"/>
<defs>
<linearGradient id="paint0_linear_37_196" x1="47.8727" y1="25.2193" x2="180.707" y2="213.262" gradientUnits="userSpaceOnUse">
<stop stop-color="#ED7B50"/>
<stop offset="0.541667" stop-color="#488AEA"/>
<stop offset="1" stop-color="#2C2C2C"/>
</linearGradient>
</defs>
</svg>
